<svg width="1200" height="360" viewBox="0 0 1200 360" fill="none" xmlns="http://www.w3.org/2000/svg">
<path fill-rule="evenodd" clip-rule="evenodd" d="M1153.99 143.55H1199.38C1199.72 143.55 1200 143.25 1200 142.88V98.12C1199.99 87.18 1196.37 78.28 1189.04 72.06C1182.3 66.34 1172.18 62.89 1158.65 62.21C1158.31 62.19 1158.03 62.48 1158.03 62.84V79.72C1158.03 80.05 1158.28 80.32 1158.59 80.35C1170.46 81.18 1179.49 85.01 1179.49 98.35L1153.99 98.36C1153.65 98.36 1153.37 98.66 1153.37 99.03V142.89C1153.37 143.25 1153.65 143.55 1153.99 143.55ZM172.19 179.78H117.15C116.29 179.78 115.74 180.55 115.74 181.31V210.87C115.74 211.8 116.44 212.4 117.15 212.4H136.7V236.2C136.7 253.9 132.38 263.4 117.15 263.4C104.43 263.4 95.4 255.69 95.4 231.71V162.6C95.4 139.64 102.24 128.88 117.39 128.88C131.05 128.88 136.62 137.27 136.62 152.94V161.84C136.62 162.77 137.33 163.36 138.04 163.36H171.88C172.74 163.36 173.29 162.6 173.29 161.84V151.4C173.6 114.22 153.82 94.56 118.02 94.56C82.22 94.56 58.9 115.83 58.9 160.56V234.51C58.9 278.56 86.06 297.71 116.21 297.71C149.97 297.71 173.52 284.41 173.52 235.19V181.22C173.534 180.845 173.405 180.478 173.157 180.195C172.91 179.913 172.564 179.735 172.19 179.7V179.78ZM277.55 258.54H224.63V99.79C224.63 98.85 223.93 98.26 223.22 98.26H189.92C189.06 98.26 188.52 99.02 188.52 99.79V292.68C188.52 293.61 189.22 294.2 189.92 294.2H277.47C278.33 294.2 278.88 293.44 278.88 292.68V260.15C278.88 259.22 278.18 258.62 277.47 258.62H277.55V258.54ZM774.85 161.06C774.85 116.59 797.69 94.9 832.63 94.9C867.1 94.9 890.26 116.67 890.1 161.06V231.54C890.1 276.61 868.67 297.36 832.63 297.36C796.59 297.36 774.85 277.03 774.85 231.54V161.06ZM832.63 263.56C847.23 263.56 853.28 252.89 853.28 230.19V162.67C853.28 139.97 847.39 128.96 832.63 128.96C817.87 128.96 811.98 140.39 811.98 162.67V230.19C811.98 252.98 818.03 263.56 832.63 263.56ZM961.95 94.9C927.01 94.9 904.16 116.59 904.16 161.06V231.54C904.16 277.04 925.91 297.36 961.95 297.36C997.99 297.36 1019.42 276.61 1019.42 231.54V161.06C1019.58 116.67 996.42 94.9 961.95 94.9ZM982.6 230.2C982.6 252.9 976.55 263.57 961.95 263.57C947.35 263.57 941.3 252.98 941.3 230.2V162.68C941.3 140.4 947.19 128.97 961.95 128.97C976.71 128.97 982.6 139.97 982.6 162.68V230.2ZM652.85 98.2H702.78V98.37C736.54 98.37 761.98 116.92 761.98 162.67V229.85C761.98 275.17 737.17 294.15 702.38 294.15H652.85C652.14 294.15 651.43 293.55 651.43 292.62V99.9C651.43 99.05 651.98 98.2 652.85 98.2ZM700.82 258.48C715.89 258.48 725.32 248.14 725.32 224L725.39 224.08V165.21C725.39 140.81 715.5 130.98 700.5 130.98H686.76V258.48H700.82ZM470.78 94.56H470.23C435.84 94.56 417.71 115.74 417.71 147.51C417.71 180.58 439.07 195.97 456.69 208.66L460.1 211.13L464.19 214.1L464.2 214.11L464.21 214.12C476.65 223.12 486.25 230.06 486.25 245.35C486.25 258.15 478.4 263.23 469.29 263.48C459.24 263.73 451.94 255.43 451.94 245.01V228.15C451.944 227.898 451.898 227.648 451.805 227.414C451.712 227.181 451.574 226.967 451.398 226.787C451.223 226.607 451.013 226.463 450.782 226.364C450.55 226.265 450.302 226.213 450.05 226.21H417.86C416.76 226.21 415.98 227.05 415.98 228.16V245.26C415.98 279.06 434.98 297.79 468.43 297.79C501.87 297.79 522.13 278.64 522.13 245.01C522.13 209.99 501.39 194.86 483.32 181.66L482.72 181.22C480.746 179.776 478.759 178.35 476.76 176.94C464.38 168.14 452.88 159.97 452.88 147.25C452.88 134.63 460.88 128.7 470.15 128.7C480.13 128.7 487.19 136.41 487.19 146.58V161.48C487.19 162.58 488.06 163.43 489.08 163.43H521.27C522.37 163.43 523.15 162.59 523.15 161.49V147C523.23 113.8 503.21 94.73 470.78 94.56ZM586.41 94.56H586.96C619.39 94.73 639.33 113.79 639.33 147V161.49C639.33 162.59 638.55 163.43 637.45 163.43H605.25C604.999 163.426 604.752 163.373 604.521 163.273C604.291 163.174 604.083 163.03 603.908 162.849C603.734 162.669 603.596 162.456 603.504 162.223C603.412 161.99 603.366 161.741 603.37 161.49V146.58C603.37 136.41 596.31 128.7 586.33 128.7C577.07 128.7 569.06 134.63 569.06 147.25C569.06 159.96 580.56 168.14 592.94 176.94C594.92 178.34 596.92 179.77 598.9 181.22L599.5 181.66C617.58 194.86 638.31 209.99 638.31 245.01C638.31 278.64 618.05 297.79 584.61 297.79C551.16 297.79 532.16 279.07 532.16 245.27V228.15C532.16 227.05 532.95 226.21 534.04 226.21H566.24C567.26 226.21 568.12 227.05 568.12 228.16V245C568.12 255.42 575.42 263.72 585.47 263.47C594.57 263.22 602.43 258.13 602.43 245.34C602.43 230.04 592.83 223.11 580.4 214.11C579.06 213.14 577.68 212.15 576.29 211.11L572.91 208.67L572.88 208.65C555.25 195.96 533.88 180.57 533.88 147.5C533.88 115.73 552.03 94.55 586.41 94.55V94.56ZM1141.11 158.54V142.36C1141.11 117.71 1122.11 98.31 1100.28 98.31H1035.43C1034.65 98.31 1034.02 98.99 1034.02 99.83V292.56C1034.02 293.4 1034.65 294.08 1035.43 294.08H1067.15C1068.01 294.08 1068.56 293.32 1068.56 292.56V212.33H1084.11C1098.56 212.33 1103.11 218.09 1103.11 232.75V292.39C1103.11 293.32 1103.82 293.91 1104.52 293.91H1137.26C1137.66 293.9 1138.03 293.735 1138.31 293.452C1138.59 293.168 1138.75 292.787 1138.75 292.39V233.85C1138.75 213.85 1133.65 201.06 1120.62 195.81C1133.73 190.05 1141.11 178.53 1141.11 158.54ZM1105.62 165.32C1105.62 173.36 1099.65 179.8 1092.27 179.8H1068.17V130.84H1092.27C1099.65 130.84 1105.62 137.28 1105.62 145.24V165.32ZM334.62 98.31H368.39C369.02 98.31 369.64 98.81 369.8 99.58L413.61 292.05C414.01 293.15 413.21 294.17 412.2 294.17H379.85C379.3 294.17 378.59 293.66 378.44 292.89L371.53 258.42H331.17L324.27 292.89C324.221 293.235 324.051 293.551 323.792 293.784C323.532 294.016 323.198 294.149 322.85 294.16H290.5C289.56 294.16 288.85 293.15 289.09 292.05L333.2 99.58C333.233 99.2281 333.397 98.9017 333.661 98.6662C333.924 98.4306 334.267 98.3034 334.62 98.31ZM351.04 159.47L337.69 226.06H364.69L351.35 159.47L351.19 160.4L351.04 159.47ZM46 98.27H0.62C0.28 98.27 0 98.57 0 98.93V142.78C0 143.15 0.28 143.45 0.62 143.45H26.12C26.12 156.8 17.09 160.63 5.22 161.46C5.06352 161.473 4.91799 161.545 4.81368 161.663C4.70938 161.78 4.65433 161.933 4.66 162.09V178.98C4.66 179.33 4.95 179.62 5.28 179.6C18.81 178.92 28.93 175.47 35.67 169.75C43 163.53 46.62 154.63 46.63 143.69V98.93C46.63 98.56 46.35 98.26 46.01 98.26L46 98.27Z" fill="#00A264"/>
</svg>
